name rise44.9368peak50.754fall52.0217.mot
datacolumns 19
datarows 35
range 4.86831700000000 4.92498600000000
endheader
time	ground_force1_vx	ground_force1_vy	ground_force1_vz	ground_force1_px	ground_force1_py	ground_force1_pz	ground_force2_vx	ground_force2_vy	ground_force2_vz	ground_force2_px	ground_force2_py	ground_force2_pz	ground_torque1_x	ground_torque1_y	ground_torque1_z	ground_torque2_x	ground_torque2_y	ground_torque2_z	
4.86831700000000	-51.23262700000000	838.84688500000004	68.35881600000000	0.15551200000000	0.00000000000000	0.08795900000000	0.00000000000000	0.00000000000000	0.00000000000000	0.00000000000000	0.00000000000000	0.00000000000000	0.00000000000000	29.82589900000000	0.00000000000000	0.00000000000000	0.00000000000000	0.00000000000000	
4.86998200000000	-51.46395200000000	837.84510999999998	68.35572900000000	0.15464600000000	0.00000000000000	0.08791900000000	-0.59369200000000	3.30525000000000	0.92331400000000	0.00000000000000	0.00000000000000	0.00000000000000	0.00000000000000	29.71291400000000	0.00000000000000	0.00000000000000	0.36865100000000	0.00000000000000	
4.87164800000000	-51.71135300000000	836.73170100000004	68.32248600000000	0.15377800000000	0.00000000000000	0.08787400000000	-0.84121200000000	6.84992000000000	1.63056400000000	0.00000000000000	0.00000000000000	0.00000000000000	0.00000000000000	29.59530400000000	0.00000000000000	0.00000000000000	0.67578200000000	0.00000000000000	
4.87331900000000	-51.97544600000000	835.50453100000004	68.25820400000001	0.15291000000000	0.00000000000000	0.08782500000000	-1.09739300000000	11.19700400000000	2.46253200000000	0.00000000000000	0.00000000000000	0.00000000000000	0.00000000000000	29.47314600000000	0.00000000000000	0.00000000000000	1.04130400000000	0.00000000000000	
4.87498200000000	-52.25678600000000	834.16138799999999	68.16204800000000	0.15204200000000	0.00000000000000	0.08777100000000	-1.34714100000000	16.31770600000000	3.40341500000000	0.00000000000000	0.00000000000000	0.00000000000000	0.00000000000000	29.34652000000000	0.00000000000000	0.00000000000000	1.45952700000000	0.00000000000000	
4.87666500000000	-52.55585900000000	832.69997300000000	68.03322799999999	0.15117500000000	0.00000000000000	0.08771300000000	-1.57344000000000	22.14957600000000	4.43086900000000	0.00000000000000	0.00000000000000	0.00000000000000	0.00000000000000	29.21551100000000	0.00000000000000	0.00000000000000	1.92188600000000	0.00000000000000	
4.87831700000000	-52.87308000000000	831.11789999999996	67.87100500000000	0.15031100000000	0.00000000000000	0.08764900000000	-1.75839500000000	28.60134700000000	5.51749400000000	0.33322000000000	0.00000000000000	-0.10450900000000	0.00000000000000	29.08020800000000	0.00000000000000	0.00000000000000	4.07228900000000	0.00000000000000	
4.87998400000000	-53.20879200000000	829.41269699999998	67.67469699999999	0.14945000000000	0.00000000000000	0.08758000000000	-1.88443700000000	35.56077600000000	6.63286700000000	0.33982500000000	0.00000000000000	-0.10536900000000	0.00000000000000	28.94070100000000	0.00000000000000	0.00000000000000	4.98955500000000	0.00000000000000	
4.88168200000000	-53.56326000000000	827.58181000000002	67.44367800000001	0.14859500000000	0.00000000000000	0.08750600000000	-1.93553500000000	42.90443000000000	7.74589000000000	0.34571500000000	0.00000000000000	-0.10611400000000	0.00000000000000	28.79708400000000	0.00000000000000	0.00000000000000	5.93128000000000	0.00000000000000	
4.88331400000000	-53.93667200000000	825.62260100000003	67.17738000000000	0.14774500000000	0.00000000000000	0.08742600000000	-1.89825300000000	50.50800300000000	8.82709800000000	0.35103700000000	0.00000000000000	-0.10676500000000	0.00000000000000	28.64944800000000	0.00000000000000	0.00000000000000	6.87523800000000	0.00000000000000	
4.88498800000000	-54.32913000000000	823.53235400000005	66.87530099999999	0.14690400000000	0.00000000000000	0.08734100000000	-1.76251900000000	58.25578300000000	9.85065200000000	0.35590300000000	0.00000000000000	-0.10734200000000	0.00000000000000	28.49788900000000	0.00000000000000	0.00000000000000	7.80117900000000	0.00000000000000	
4.88664800000000	-54.74065500000000	821.30828299999996	66.53700300000000	0.14607100000000	0.00000000000000	0.08725000000000	-1.52205600000000	66.04824800000000	10.79580000000000	0.36039800000000	0.00000000000000	-0.10785800000000	0.00000000000000	28.34249900000000	0.00000000000000	0.00000000000000	8.69204700000000	0.00000000000000	
4.88831900000000	-55.17117800000000	818.94753300000002	66.16211600000000	0.14524900000000	0.00000000000000	0.08715200000000	-1.17444500000000	73.80722700000000	11.64771200000000	0.36458700000000	0.00000000000000	-0.10832400000000	0.00000000000000	28.18336700000000	0.00000000000000	0.00000000000000	9.53477500000000	0.00000000000000	
4.88998700000000	-55.62054200000000	816.44718699999999	65.75033900000000	0.14443900000000	0.00000000000000	0.08704800000000	-0.72087400000000	81.47848500000001	12.39771500000000	0.36852100000000	0.00000000000000	-0.10874600000000	0.00000000000000	28.02058200000000	0.00000000000000	0.00000000000000	10.32062900000000	0.00000000000000	
4.89165000000000	-56.08850000000000	813.80427899999995	65.30144400000000	0.14364300000000	0.00000000000000	0.08693800000000	-0.16563900000000	89.03191000000000	13.04297200000000	0.37224000000000	0.00000000000000	-0.10913300000000	0.00000000000000	27.85422700000000	0.00000000000000	0.00000000000000	11.04514800000000	0.00000000000000	
4.89332300000000	-56.57470900000000	811.01579600000002	64.81527800000001	0.14286200000000	0.00000000000000	0.08682200000000	0.48452800000000	96.45967899999999	13.58574800000000	0.37577700000000	0.00000000000000	-0.10948800000000	0.00000000000000	27.68438000000000	0.00000000000000	0.00000000000000	11.70773300000000	0.00000000000000	
4.89498900000000	-57.07873500000000	808.07869200000005	64.29176400000000	0.14209700000000	0.00000000000000	0.08669900000000	1.22120700000000	103.77290300000000	14.03237900000000	0.37915700000000	0.00000000000000	-0.10981800000000	0.00000000000000	27.51111300000000	0.00000000000000	0.00000000000000	12.31100600000000	0.00000000000000	
4.89666200000000	-57.60004400000000	804.98989600000004	63.73090100000000	0.14135100000000	0.00000000000000	0.08656900000000	2.03505200000000	110.99730800000000	14.39209300000000	0.38240400000000	0.00000000000000	-0.11012400000000	0.00000000000000	27.33449100000000	0.00000000000000	0.00000000000000	12.85999600000000	0.00000000000000	
4.89831500000000	-58.13801000000000	801.74632199999996	63.13276800000000	0.14062500000000	0.00000000000000	0.08643200000000	2.91649100000000	118.16846600000000	14.67579300000000	0.38553300000000	0.00000000000000	-0.11041000000000	0.00000000000000	27.15457200000000	0.00000000000000	0.00000000000000	13.36128500000000	0.00000000000000	
4.89998800000000	-58.69190400000000	798.34488599999997	62.49752500000000	0.13992000000000	0.00000000000000	0.08628800000000	3.85632300000000	125.32704699999999	14.89492500000000	0.38856000000000	0.00000000000000	-0.11067900000000	0.00000000000000	26.97140100000000	0.00000000000000	0.00000000000000	13.82216100000000	0.00000000000000	
4.90164900000000	-59.26090300000000	794.78251200000000	61.82541000000000	0.13923800000000	0.00000000000000	0.08613700000000	4.84617800000000	132.51446899999999	15.06049000000000	0.39149700000000	0.00000000000000	-0.11093300000000	0.00000000000000	26.78501700000000	0.00000000000000	0.00000000000000	14.24986700000000	0.00000000000000	
4.90331400000000	-59.84408300000000	791.05614900000000	61.11674800000000	0.13858100000000	0.00000000000000	0.08597900000000	5.87884000000000	139.76922800000000	15.18227000000000	0.39435400000000	0.00000000000000	-0.11117300000000	0.00000000000000	26.59544700000000	0.00000000000000	0.00000000000000	14.65097100000000	0.00000000000000	
4.90498400000000	-60.44042300000000	787.16278299999999	60.37194100000000	0.13794900000000	0.00000000000000	0.08581300000000	6.94841000000000	147.12404900000001	15.26827100000000	0.39713900000000	0.00000000000000	-0.11140200000000	0.00000000000000	26.40270600000000	0.00000000000000	0.00000000000000	15.03090700000000	0.00000000000000	
4.90666600000000	-61.04880400000000	783.09945200000004	59.59147800000000	0.13734600000000	0.00000000000000	0.08564000000000	8.05034500000000	154.60396700000001	15.32441000000000	0.39986000000000	0.00000000000000	-0.11162000000000	0.00000000000000	26.20679700000000	0.00000000000000	0.00000000000000	15.39366700000000	0.00000000000000	
4.90832100000000	-61.66800700000000	778.86325899999997	58.77592800000000	0.13677100000000	0.00000000000000	0.08546000000000	9.18138200000000	162.22527900000000	15.35440800000000	0.40252200000000	0.00000000000000	-0.11182900000000	0.00000000000000	26.00771000000000	0.00000000000000	0.00000000000000	15.74166300000000	0.00000000000000	
4.90998200000000	-62.29672000000000	774.45138999999995	57.92594500000000	0.13622700000000	0.00000000000000	0.08527200000000	10.33937500000000	169.99532099999999	15.35986900000000	0.40513100000000	0.00000000000000	-0.11203000000000	0.00000000000000	25.80542400000000	0.00000000000000	0.00000000000000	16.07573200000000	0.00000000000000	
4.91166500000000	-62.93353500000000	769.86112700000001	57.04226200000000	0.13571500000000	0.00000000000000	0.08507600000000	11.52307500000000	177.91291899999999	15.34050600000000	0.40768900000000	0.00000000000000	-0.11222300000000	0.00000000000000	25.59990300000000	0.00000000000000	0.00000000000000	16.39525200000000	0.00000000000000	
4.91331500000000	-63.57695000000000	765.08986600000003	56.12569800000000	0.13523600000000	0.00000000000000	0.08487300000000	12.73187300000000	185.96935800000000	15.29447100000000	0.41020200000000	0.00000000000000	-0.11241100000000	0.00000000000000	25.39109900000000	0.00000000000000	0.00000000000000	16.69835300000000	0.00000000000000	
4.91499100000000	-64.22537400000000	760.13513200000000	55.17714800000000	0.13479100000000	0.00000000000000	0.08466200000000	13.96555000000000	194.14971299999999	15.21873300000000	0.41267000000000	0.00000000000000	-0.11259200000000	0.00000000000000	25.17895100000000	0.00000000000000	0.00000000000000	16.98218100000000	0.00000000000000	
4.91664800000000	-64.87712600000000	754.99459899999999	54.19758800000000	0.13438200000000	0.00000000000000	0.08444400000000	15.22402600000000	202.43436100000000	15.10949000000000	0.41509800000000	0.00000000000000	-0.11276900000000	0.00000000000000	24.96338400000000	0.00000000000000	0.00000000000000	17.24318700000000	0.00000000000000	
4.91831700000000	-65.53044100000000	749.66610500000002	53.18807300000000	0.13400900000000	0.00000000000000	0.08421700000000	16.50714700000000	210.80054799999999	14.96255900000000	0.41748500000000	0.00000000000000	-0.11294200000000	0.00000000000000	24.74431300000000	0.00000000000000	0.00000000000000	17.47742600000000	0.00000000000000	
4.91998300000000	-66.18347100000000	744.14767099999995	52.14973100000000	0.13367500000000	0.00000000000000	0.08398300000000	17.81451400000000	219.22387100000000	14.77372800000000	0.41983400000000	0.00000000000000	-0.11311100000000	0.00000000000000	24.52163900000000	0.00000000000000	0.00000000000000	17.68082700000000	0.00000000000000	
4.92164800000000	-66.83429000000000	738.43752300000006	51.08376500000000	0.13337900000000	0.00000000000000	0.08374100000000	19.14535500000000	227.67959600000000	14.53905100000000	0.42214600000000	0.00000000000000	-0.11327700000000	0.00000000000000	24.29525300000000	0.00000000000000	0.00000000000000	17.84942600000000	0.00000000000000	
4.92332100000000	-67.48090000000001	732.53410399999996	49.99145000000000	0.13312300000000	0.00000000000000	0.08349200000000	20.49844300000000	236.14374300000000	14.25507700000000	0.42442000000000	0.00000000000000	-0.11344000000000	0.00000000000000	24.06503600000000	0.00000000000000	0.00000000000000	17.97956300000000	0.00000000000000	
4.92498600000000	-68.12123099999999	726.43610000000001	48.87412700000000	0.13290700000000	0.00000000000000	0.08323500000000	21.87206100000000	244.59390400000001	13.91900400000000	0.42665800000000	0.00000000000000	-0.11360100000000	0.00000000000000	23.83085700000000	0.00000000000000	0.00000000000000	18.06801800000000	0.00000000000000	
